<svg width="0" height="0" class="hidden">
  <symbol xmlns="http://www.w3.org/2000/svg" xmlns:xlink="http://www.w3.org/1999/xlink" viewBox="0 0 50 50" id="bookmark">
    <path d="M37,3	H13v44l12-7l12,7V3z"></path>
  </symbol>

   <symbol version="1.1" xml:space="preserve" xmlns="http://www.w3.org/2000/svg" xmlns:xlink="http://www.w3.org/1999/xlink" viewBox="0 0 512 512" id="cross">
    <g id="cross">
      <g>
        <line x1="112.5" x2="401" y1="112.5" y2="401"></line>
        <line x1="401" x2="112.5" y1="112.5" y2="401"></line>
      </g>
    </g>
    <g id="cross_copy">
      <path d="M268.064,256.75l138.593-138.593c3.124-3.124,3.124-8.189,0-11.313c-3.125-3.124-8.189-3.124-11.314,0L256.75,245.436   L118.157,106.843c-3.124-3.124-8.189-3.124-11.313,0c-3.125,3.124-3.125,8.189,0,11.313L245.436,256.75L106.843,395.343   c-3.125,3.125-3.125,8.189,0,11.314c1.562,1.562,3.609,2.343,5.657,2.343s4.095-0.781,5.657-2.343L256.75,268.064l138.593,138.593   c1.563,1.562,3.609,2.343,5.657,2.343s4.095-0.781,5.657-2.343c3.124-3.125,3.124-8.189,0-11.314L268.064,256.75z"></path>
    </g>
  </symbol>

  <symbol id="arrow" version="1.1" xml:space="preserve" xmlns="http://www.w3.org/2000/svg" xmlns:xlink="http://www.w3.org/1999/xlink" viewBox="0 0 128 128">
    <g>
      <line x1="40.5" x2="87.5" y1="17" y2="64"></line>
      <line x1="87.5" x2="40.5" y1="64" y2="111"></line>
    </g>
  </symbol>

</svg>